<svg width="1540" height="863" viewBox="0 0 1540 863" fill="none" xmlns="http://www.w3.org/2000/svg">
<path d="M859 88.5C859 50.4913 859 31.4869 848.841 18.4689C846.422 15.3692 843.631 12.5784 840.531 10.1594C827.513 0 808.509 0 770.5 0V0C732.491 0 713.487 0 700.469 10.1594C697.369 12.5784 694.578 15.3692 692.159 18.4689C682 31.4869 682 50.4913 682 88.5V114C682 159.255 682 181.882 667.941 195.941C653.882 210 631.255 210 586 210H557.5C519.491 210 500.487 210 487.469 220.159C484.369 222.578 481.578 225.369 479.159 228.469C469 241.487 469 260.491 469 298.5V298.5C469 336.509 469 355.513 479.159 368.531C481.578 371.631 484.369 374.422 487.469 376.841C500.487 387 519.491 387 557.5 387H586C631.255 387 653.882 387 667.941 401.059C682 415.118 682 437.745 682 483V774.5C682 812.509 682 831.513 692.159 844.531C694.578 847.631 697.369 850.422 700.469 852.841C713.487 863 732.491 863 770.5 863V863C808.509 863 827.513 863 840.531 852.841C843.631 850.422 846.422 847.631 848.841 844.531C859 831.513 859 812.509 859 774.5V483C859 437.745 859 415.118 873.059 401.059C887.118 387 909.745 387 955 387H984.5C1022.51 387 1041.51 387 1054.53 376.841C1057.63 374.422 1060.42 371.631 1062.84 368.531C1073 355.513 1073 336.509 1073 298.5V298.5C1073 260.491 1073 241.487 1062.84 228.469C1060.42 225.369 1057.63 222.578 1054.53 220.159C1041.51 210 1022.51 210 984.5 210H955C909.745 210 887.118 210 873.059 195.941C859 181.882 859 159.255 859 114V88.5Z" fill="#00507C"/>
<path d="M142.792 262.136C182.728 262.136 213.448 269.475 234.952 284.152C256.797 298.488 266.355 321.016 263.624 351.736C262.941 362.317 259.357 372.899 252.872 383.48C246.728 393.72 237.683 402.936 225.736 411.128C213.789 418.979 198.6 424.781 180.168 428.536V429.56C216.349 431.267 242.803 440.824 259.528 458.232C276.595 475.299 284.275 496.12 282.568 520.696C281.544 541.859 275.4 560.12 264.136 575.48C253.213 590.499 238.365 601.933 219.592 609.784C201.16 617.635 180.339 621.56 157.128 621.56H0.456055L1.99205 599.032C13.2561 598.691 21.4481 596.472 26.5681 592.376C31.6881 587.939 35.1014 581.453 36.8081 572.92C38.8561 564.387 40.2214 553.635 40.9041 540.664L51.6561 331.768C51.9974 322.552 52.5094 314.36 53.1921 307.192C54.2161 299.683 55.0694 293.709 55.7521 289.272C49.6081 289.613 43.1227 289.955 36.2961 290.296C29.4694 290.637 23.3254 290.979 17.8641 291.32L19.4001 263.16C39.8801 263.16 60.1894 262.989 80.3281 262.648C100.467 262.307 121.288 262.136 142.792 262.136ZM147.4 447.992C137.501 447.992 128.797 448.163 121.288 448.504C113.779 448.504 106.099 448.675 98.2481 449.016L92.6161 553.976C92.2747 563.192 91.7627 571.384 91.0801 578.552C90.3974 585.379 89.7147 591.011 89.0321 595.448C94.4934 595.789 100.637 595.96 107.464 595.96C114.632 595.96 121.288 595.96 127.432 595.96C133.917 595.96 138.696 595.96 141.768 595.96C166.344 595.619 185.8 589.133 200.136 576.504C214.813 563.533 222.835 545.443 224.2 522.232C225.224 503.459 222.152 488.781 214.984 478.2C207.816 467.277 198.259 459.597 186.312 455.16C174.365 450.381 161.395 447.992 147.4 447.992ZM142.28 286.2C133.405 286.2 126.237 287.565 120.776 290.296C115.315 293.027 111.389 297.805 109 304.632C106.611 311.117 105.075 320.845 104.392 333.816L99.7841 423.928C105.587 423.928 111.389 423.928 117.192 423.928C122.995 423.587 128.456 423.245 133.576 422.904C151.325 422.221 165.491 418.296 176.072 411.128C186.995 403.96 194.845 394.915 199.624 383.992C204.744 372.728 207.475 360.952 207.816 348.664C208.84 331.597 205.939 318.627 199.112 309.752C192.285 300.877 183.752 294.733 173.512 291.32C163.272 287.907 152.861 286.2 142.28 286.2Z" fill="white"/>
<path d="M375.192 359.928C390.552 359.928 401.816 365.048 408.984 375.288C416.152 385.187 419.736 398.499 419.736 415.224C419.736 424.781 418.712 436.387 416.664 450.04C414.957 463.352 412.739 477.517 410.008 492.536C407.619 507.555 405.571 522.232 403.864 536.568C402.157 550.904 401.304 563.875 401.304 575.48C401.304 581.965 402.328 586.744 404.376 589.816C406.765 592.888 410.008 594.424 414.104 594.424C419.565 594.424 425.197 591.011 431 584.184C437.144 577.016 442.605 564.899 447.384 547.832L466.328 552.44C464.963 559.608 462.573 567.629 459.16 576.504C455.747 585.037 451.139 593.229 445.336 601.08C439.875 608.589 433.219 614.904 425.368 620.024C417.517 624.803 408.472 627.192 398.232 627.192C381.507 627.192 369.389 622.755 361.88 613.88C354.712 605.005 351.128 592.376 351.128 575.992C351.128 562.68 351.981 549.027 353.688 535.032C355.736 521.037 357.955 507.043 360.344 493.048C362.733 479.053 364.952 465.4 367 452.088C369.048 438.435 370.072 425.293 370.072 412.664C370.072 407.885 369.048 403.448 367 399.352C365.293 394.915 362.221 392.696 357.784 392.696C352.664 392.696 347.032 396.28 340.888 403.448C334.744 410.275 329.283 422.221 324.504 439.288L305.56 434.68C306.925 428.195 309.315 420.856 312.728 412.664C316.141 404.131 320.579 395.939 326.04 388.088C331.843 379.896 338.669 373.24 346.52 368.12C354.712 362.659 364.269 359.928 375.192 359.928ZM400.28 243.192C409.496 243.192 416.835 246.435 422.296 252.92C428.099 259.064 431 267.085 431 276.984C430.659 286.541 427.416 294.392 421.272 300.536C415.128 306.68 407.789 309.752 399.256 309.752C390.381 309.752 382.872 306.68 376.728 300.536C370.925 294.392 368.195 286.541 368.536 276.984C368.536 267.085 371.779 259.064 378.264 252.92C384.749 246.435 392.088 243.192 400.28 243.192Z" fill="white"/>
<path d="M577.46 235C576.095 244.557 574.559 255.139 572.852 266.744C571.487 278.349 570.292 289.613 569.268 300.536C568.244 311.117 567.22 320.163 566.196 327.672C565.172 338.936 563.977 351.395 562.612 365.048C561.247 378.36 559.711 392.525 558.004 407.544C556.639 422.563 555.103 437.581 553.396 452.6H554.42C560.905 432.461 567.903 416.248 575.412 403.96C583.263 391.672 591.284 382.456 599.476 376.312C607.668 369.827 615.689 365.56 623.54 363.512C631.391 361.123 638.729 359.928 645.556 359.928C661.94 359.928 675.081 364.536 684.98 373.752C694.879 382.627 701.876 394.232 705.972 408.568C710.409 422.904 712.628 438.435 712.628 455.16C712.628 478.712 710.068 500.899 704.948 521.72C699.828 542.2 691.636 560.461 680.372 576.504C669.108 592.205 654.431 604.664 636.34 613.88C618.591 622.755 597.087 627.192 571.828 627.192C566.367 627.192 559.369 626.851 550.836 626.168C542.644 625.485 533.94 624.291 524.724 622.584C515.849 620.877 507.657 618.488 500.148 615.416C501.855 584.013 503.391 555.683 504.756 530.424C506.463 505.165 507.999 481.101 509.364 458.232C510.729 435.021 512.265 411.469 513.972 387.576C515.679 363.341 517.727 336.717 520.116 307.704C520.457 299.853 520.799 293.709 521.14 289.272C521.823 284.493 522.505 279.373 523.188 273.912C517.385 274.253 511.241 274.595 504.756 274.936C498.271 275.277 492.297 275.619 486.836 275.96L488.884 249.336C504.244 249.336 516.532 248.653 525.748 247.288C534.964 245.581 541.961 243.704 546.74 241.656C551.86 239.608 555.785 237.389 558.516 235H577.46ZM629.172 391.672C620.639 392.013 612.276 396.451 604.084 404.984C595.892 413.176 588.383 424.269 581.556 438.264C575.071 451.917 569.268 467.619 564.148 485.368C559.028 502.776 554.932 520.867 551.86 539.64C548.788 558.413 547.081 576.675 546.74 594.424C550.153 597.837 555.103 600.397 561.588 602.104C568.415 603.469 574.559 604.152 580.02 604.152C594.015 603.811 605.62 600.568 614.836 594.424C624.393 587.939 632.073 579.405 637.876 568.824C644.02 558.243 648.628 546.467 651.7 533.496C655.113 520.525 657.332 507.555 658.356 494.584C659.721 481.272 660.233 468.813 659.892 457.208C659.892 435.704 657.161 419.32 651.7 408.056C646.58 396.792 639.071 391.331 629.172 391.672Z" fill="white"/>
<path d="M849.188 235C848.164 244.216 846.799 254.115 845.092 264.696C843.385 274.936 841.849 285.005 840.484 294.904C839.119 304.803 837.924 313.848 836.9 322.04C834.169 342.52 831.609 363 829.22 383.48C827.172 403.619 825.124 423.245 823.076 442.36C821.028 461.133 819.321 478.883 817.956 495.608C816.591 511.992 815.396 526.669 814.372 539.64C813.689 552.611 813.348 563.192 813.348 571.384C813.348 577.869 814.031 583.331 815.396 587.768C816.761 592.205 820.004 594.424 825.124 594.424C830.244 594.424 835.705 591.011 841.508 584.184C847.652 577.357 853.284 565.24 858.404 547.832L876.836 552.952C875.471 559.437 873.081 567.117 869.668 575.992C866.255 584.525 861.647 592.717 855.844 600.568C850.383 608.077 843.556 614.392 835.364 619.512C827.172 624.632 817.615 627.192 806.692 627.192C793.38 627.192 782.969 623.608 775.46 616.44C767.951 609.272 764.196 598.179 764.196 583.16C763.855 573.261 764.196 560.291 765.22 544.248C766.244 528.205 767.609 510.456 769.316 491C771.023 471.203 772.9 450.723 774.948 429.56C777.337 408.056 779.727 387.064 782.116 366.584C784.847 345.763 787.407 326.307 789.796 308.216C791.161 300.024 792.185 293.539 792.868 288.76C793.551 283.64 794.233 278.691 794.916 273.912C789.113 274.253 782.969 274.595 776.484 274.936C769.999 275.277 764.025 275.619 758.564 275.96L761.124 249.336C776.484 249.336 788.601 248.653 797.476 247.288C806.692 245.581 813.689 243.704 818.468 241.656C823.588 239.608 827.513 237.389 830.244 235H849.188Z" fill="white"/>
<path d="M1026.87 359.928C1040.18 359.928 1052.3 361.976 1063.22 366.072C1074.49 369.827 1083.53 376.141 1090.36 385.016C1097.19 393.891 1100.6 405.837 1100.6 420.856C1100.6 434.851 1095.99 446.968 1086.78 457.208C1077.56 467.107 1065.61 475.299 1050.94 481.784C1036.26 488.269 1020.39 493.56 1003.32 497.656C986.253 501.411 969.869 504.312 954.168 506.36C954.168 526.84 956.387 543.565 960.824 556.536C965.261 569.507 971.405 579.064 979.256 585.208C987.448 591.352 997.176 594.424 1008.44 594.424C1016.97 594.424 1025.85 592.547 1035.06 588.792C1044.62 585.037 1053.84 579.064 1062.71 570.872C1071.59 562.339 1079.61 550.904 1086.78 536.568L1107.77 547.832C1098.21 566.947 1087.8 582.477 1076.54 594.424C1065.27 606.029 1053.15 614.392 1040.18 619.512C1027.21 624.632 1013.22 627.192 998.2 627.192C966.115 627.192 941.88 617.464 925.496 598.008C909.112 578.211 900.92 550.904 900.92 516.088C900.92 497.656 903.48 479.224 908.6 460.792C913.72 442.019 921.4 425.123 931.64 410.104C941.88 394.744 955.021 382.627 971.064 373.752C987.107 364.536 1005.71 359.928 1026.87 359.928ZM1020.22 382.968C1005.88 382.968 994.104 387.917 984.888 397.816C976.013 407.373 969.187 419.832 964.408 435.192C959.629 450.552 956.557 466.424 955.192 482.808C973.283 480.077 989.667 475.811 1004.34 470.008C1019.02 463.864 1030.63 456.355 1039.16 447.48C1048.03 438.264 1052.3 428.024 1051.96 416.76C1051.96 406.52 1049.06 398.328 1043.26 392.184C1037.79 386.04 1030.11 382.968 1020.22 382.968Z" fill="white"/>
<path d="M1198.19 359.928C1213.55 359.928 1224.82 365.048 1231.98 375.288C1239.15 385.187 1242.74 398.499 1242.74 415.224C1242.74 424.781 1241.71 436.387 1239.66 450.04C1237.96 463.352 1235.74 477.517 1233.01 492.536C1230.62 507.555 1228.57 522.232 1226.86 536.568C1225.16 550.904 1224.3 563.875 1224.3 575.48C1224.3 581.965 1225.33 586.744 1227.38 589.816C1229.77 592.888 1233.01 594.424 1237.1 594.424C1242.57 594.424 1248.2 591.011 1254 584.184C1260.14 577.016 1265.61 564.899 1270.38 547.832L1289.33 552.44C1287.96 559.608 1285.57 567.629 1282.16 576.504C1278.75 585.037 1274.14 593.229 1268.34 601.08C1262.87 608.589 1256.22 614.904 1248.37 620.024C1240.52 624.803 1231.47 627.192 1221.23 627.192C1204.51 627.192 1192.39 622.755 1184.88 613.88C1177.71 605.005 1174.13 592.376 1174.13 575.992C1174.13 562.68 1174.98 549.027 1176.69 535.032C1178.74 521.037 1180.95 507.043 1183.34 493.048C1185.73 479.053 1187.95 465.4 1190 452.088C1192.05 438.435 1193.07 425.293 1193.07 412.664C1193.07 407.885 1192.05 403.448 1190 399.352C1188.29 394.915 1185.22 392.696 1180.78 392.696C1175.66 392.696 1170.03 396.28 1163.89 403.448C1157.74 410.275 1152.28 422.221 1147.5 439.288L1128.56 434.68C1129.93 428.195 1132.31 420.856 1135.73 412.664C1139.14 404.131 1143.58 395.939 1149.04 388.088C1154.84 379.896 1161.67 373.24 1169.52 368.12C1177.71 362.659 1187.27 359.928 1198.19 359.928ZM1223.28 243.192C1232.5 243.192 1239.83 246.435 1245.3 252.92C1251.1 259.064 1254 267.085 1254 276.984C1253.66 286.541 1250.42 294.392 1244.27 300.536C1238.13 306.68 1230.79 309.752 1222.26 309.752C1213.38 309.752 1205.87 306.68 1199.73 300.536C1193.93 294.392 1191.19 286.541 1191.54 276.984C1191.54 267.085 1194.78 259.064 1201.26 252.92C1207.75 246.435 1215.09 243.192 1223.28 243.192Z" fill="white"/>
<path d="M1440.91 359.928C1459.34 359.928 1476.07 364.365 1491.08 373.24C1506.1 381.773 1517.88 394.573 1526.41 411.64C1535.29 428.365 1539.72 448.675 1539.72 472.568C1539.72 499.875 1534.6 525.304 1524.36 548.856C1514.47 572.408 1500.13 591.352 1481.36 605.688C1462.58 620.024 1439.88 627.192 1413.26 627.192C1390.73 627.192 1371.96 622.072 1356.94 611.832C1342.26 601.592 1331.34 587.768 1324.17 570.36C1317 552.611 1313.42 533.155 1313.42 511.992C1313.42 484.344 1318.54 459.085 1328.78 436.216C1339.02 413.005 1353.7 394.573 1372.81 380.92C1391.93 366.925 1414.63 359.928 1440.91 359.928ZM1433.23 383.992C1419.57 383.651 1407.8 388.6 1397.9 398.84C1388.34 408.739 1380.83 422.221 1375.37 439.288C1369.91 456.355 1367.01 475.299 1366.67 496.12C1366.67 507.043 1367.35 518.819 1368.72 531.448C1370.42 543.736 1373.15 555.341 1376.91 566.264C1381 576.845 1386.47 585.549 1393.29 592.376C1400.12 599.203 1408.82 602.787 1419.4 603.128C1431.35 603.128 1441.42 599.544 1449.61 592.376C1458.15 584.867 1464.97 575.309 1470.09 563.704C1475.55 551.757 1479.48 539.128 1481.87 525.816C1484.6 512.504 1486.13 500.045 1486.48 488.44C1486.82 477.176 1486.31 465.571 1484.94 453.624C1483.57 441.677 1480.84 430.413 1476.75 419.832C1472.99 409.251 1467.53 400.717 1460.36 394.232C1453.54 387.405 1444.49 383.992 1433.23 383.992Z" fill="white"/>
</svg>
