<svg width="1540" height="393" viewBox="0 0 1540 393" fill="none" xmlns="http://www.w3.org/2000/svg">
<path d="M142.792 27.136C182.728 27.136 213.448 34.4747 234.952 49.152C256.797 63.488 266.355 86.016 263.624 116.736C262.941 127.317 259.357 137.899 252.872 148.48C246.728 158.72 237.683 167.936 225.736 176.128C213.789 183.979 198.6 189.781 180.168 193.536V194.56C216.349 196.267 242.803 205.824 259.528 223.232C276.595 240.299 284.275 261.12 282.568 285.696C281.544 306.859 275.4 325.12 264.136 340.48C253.213 355.499 238.365 366.933 219.592 374.784C201.16 382.635 180.339 386.56 157.128 386.56H0.456055L1.99205 364.032C13.2561 363.691 21.4481 361.472 26.5681 357.376C31.6881 352.939 35.1014 346.453 36.8081 337.92C38.8561 329.387 40.2214 318.635 40.9041 305.664L51.6561 96.768C51.9974 87.552 52.5094 79.36 53.1921 72.192C54.2161 64.6827 55.0694 58.7093 55.7521 54.272C49.6081 54.6134 43.1227 54.9547 36.2961 55.296C29.4694 55.6373 23.3254 55.9787 17.8641 56.32L19.4001 28.16C39.8801 28.16 60.1894 27.9893 80.3281 27.648C100.467 27.3067 121.288 27.136 142.792 27.136ZM147.4 212.992C137.501 212.992 128.797 213.163 121.288 213.504C113.779 213.504 106.099 213.675 98.2481 214.016L92.6161 318.976C92.2747 328.192 91.7627 336.384 91.0801 343.552C90.3974 350.379 89.7147 356.011 89.0321 360.448C94.4934 360.789 100.637 360.96 107.464 360.96C114.632 360.96 121.288 360.96 127.432 360.96C133.917 360.96 138.696 360.96 141.768 360.96C166.344 360.619 185.8 354.133 200.136 341.504C214.813 328.533 222.835 310.443 224.2 287.232C225.224 268.459 222.152 253.781 214.984 243.2C207.816 232.277 198.259 224.597 186.312 220.16C174.365 215.381 161.395 212.992 147.4 212.992ZM142.28 51.2C133.405 51.2 126.237 52.5653 120.776 55.296C115.315 58.0267 111.389 62.8053 109 69.632C106.611 76.1174 105.075 85.8453 104.392 98.816L99.7841 188.928C105.587 188.928 111.389 188.928 117.192 188.928C122.995 188.587 128.456 188.245 133.576 187.904C151.325 187.221 165.491 183.296 176.072 176.128C186.995 168.96 194.845 159.915 199.624 148.992C204.744 137.728 207.475 125.952 207.816 113.664C208.84 96.5974 205.939 83.6267 199.112 74.752C192.285 65.8773 183.752 59.7333 173.512 56.32C163.272 52.9067 152.861 51.2 142.28 51.2Z" fill="black"/>
<path d="M375.192 124.928C390.552 124.928 401.816 130.048 408.984 140.288C416.152 150.187 419.736 163.499 419.736 180.224C419.736 189.781 418.712 201.387 416.664 215.04C414.957 228.352 412.739 242.517 410.008 257.536C407.619 272.555 405.571 287.232 403.864 301.568C402.157 315.904 401.304 328.875 401.304 340.48C401.304 346.965 402.328 351.744 404.376 354.816C406.765 357.888 410.008 359.424 414.104 359.424C419.565 359.424 425.197 356.011 431 349.184C437.144 342.016 442.605 329.899 447.384 312.832L466.328 317.44C464.963 324.608 462.573 332.629 459.16 341.504C455.747 350.037 451.139 358.229 445.336 366.08C439.875 373.589 433.219 379.904 425.368 385.024C417.517 389.803 408.472 392.192 398.232 392.192C381.507 392.192 369.389 387.755 361.88 378.88C354.712 370.005 351.128 357.376 351.128 340.992C351.128 327.68 351.981 314.027 353.688 300.032C355.736 286.037 357.955 272.043 360.344 258.048C362.733 244.053 364.952 230.4 367 217.088C369.048 203.435 370.072 190.293 370.072 177.664C370.072 172.885 369.048 168.448 367 164.352C365.293 159.915 362.221 157.696 357.784 157.696C352.664 157.696 347.032 161.28 340.888 168.448C334.744 175.275 329.283 187.221 324.504 204.288L305.56 199.68C306.925 193.195 309.315 185.856 312.728 177.664C316.141 169.131 320.579 160.939 326.04 153.088C331.843 144.896 338.669 138.24 346.52 133.12C354.712 127.659 364.269 124.928 375.192 124.928ZM400.28 8.19202C409.496 8.19202 416.835 11.4347 422.296 17.92C428.099 24.064 431 32.0853 431 41.984C430.659 51.5413 427.416 59.392 421.272 65.536C415.128 71.68 407.789 74.752 399.256 74.752C390.381 74.752 382.872 71.68 376.728 65.536C370.925 59.392 368.195 51.5413 368.536 41.984C368.536 32.0853 371.779 24.064 378.264 17.92C384.749 11.4347 392.088 8.19202 400.28 8.19202Z" fill="black"/>
<path d="M577.46 0C576.095 9.55733 574.559 20.1387 572.852 31.744C571.487 43.3493 570.292 54.6133 569.268 65.536C568.244 76.1174 567.22 85.1627 566.196 92.672C565.172 103.936 563.977 116.395 562.612 130.048C561.247 143.36 559.711 157.525 558.004 172.544C556.639 187.563 555.103 202.581 553.396 217.6H554.42C560.905 197.461 567.903 181.248 575.412 168.96C583.263 156.672 591.284 147.456 599.476 141.312C607.668 134.827 615.689 130.56 623.54 128.512C631.391 126.123 638.729 124.928 645.556 124.928C661.94 124.928 675.081 129.536 684.98 138.752C694.879 147.627 701.876 159.232 705.972 173.568C710.409 187.904 712.628 203.435 712.628 220.16C712.628 243.712 710.068 265.899 704.948 286.72C699.828 307.2 691.636 325.461 680.372 341.504C669.108 357.205 654.431 369.664 636.34 378.88C618.591 387.755 597.087 392.192 571.828 392.192C566.367 392.192 559.369 391.851 550.836 391.168C542.644 390.485 533.94 389.291 524.724 387.584C515.849 385.877 507.657 383.488 500.148 380.416C501.855 349.013 503.391 320.683 504.756 295.424C506.463 270.165 507.999 246.101 509.364 223.232C510.729 200.021 512.265 176.469 513.972 152.576C515.679 128.341 517.727 101.717 520.116 72.704C520.457 64.8533 520.799 58.7093 521.14 54.272C521.823 49.4933 522.505 44.3733 523.188 38.912C517.385 39.2533 511.241 39.5947 504.756 39.936C498.271 40.2773 492.297 40.6187 486.836 40.96L488.884 14.336C504.244 14.336 516.532 13.6533 525.748 12.288C534.964 10.5813 541.961 8.704 546.74 6.65601C551.86 4.60801 555.785 2.38934 558.516 0H577.46ZM629.172 156.672C620.639 157.013 612.276 161.451 604.084 169.984C595.892 178.176 588.383 189.269 581.556 203.264C575.071 216.917 569.268 232.619 564.148 250.368C559.028 267.776 554.932 285.867 551.86 304.64C548.788 323.413 547.081 341.675 546.74 359.424C550.153 362.837 555.103 365.397 561.588 367.104C568.415 368.469 574.559 369.152 580.02 369.152C594.015 368.811 605.62 365.568 614.836 359.424C624.393 352.939 632.073 344.405 637.876 333.824C644.02 323.243 648.628 311.467 651.7 298.496C655.113 285.525 657.332 272.555 658.356 259.584C659.721 246.272 660.233 233.813 659.892 222.208C659.892 200.704 657.161 184.32 651.7 173.056C646.58 161.792 639.071 156.331 629.172 156.672Z" fill="black"/>
<path d="M849.188 0C848.164 9.216 846.799 19.1147 845.092 29.696C843.385 39.936 841.849 50.0053 840.484 59.904C839.119 69.8027 837.924 78.848 836.9 87.04C834.169 107.52 831.609 128 829.22 148.48C827.172 168.619 825.124 188.245 823.076 207.36C821.028 226.133 819.321 243.883 817.956 260.608C816.591 276.992 815.396 291.669 814.372 304.64C813.689 317.611 813.348 328.192 813.348 336.384C813.348 342.869 814.031 348.331 815.396 352.768C816.761 357.205 820.004 359.424 825.124 359.424C830.244 359.424 835.705 356.011 841.508 349.184C847.652 342.357 853.284 330.24 858.404 312.832L876.836 317.952C875.471 324.437 873.081 332.117 869.668 340.992C866.255 349.525 861.647 357.717 855.844 365.568C850.383 373.077 843.556 379.392 835.364 384.512C827.172 389.632 817.615 392.192 806.692 392.192C793.38 392.192 782.969 388.608 775.46 381.44C767.951 374.272 764.196 363.179 764.196 348.16C763.855 338.261 764.196 325.291 765.22 309.248C766.244 293.205 767.609 275.456 769.316 256C771.023 236.203 772.9 215.723 774.948 194.56C777.337 173.056 779.727 152.064 782.116 131.584C784.847 110.763 787.407 91.3067 789.796 73.216C791.161 65.024 792.185 58.5387 792.868 53.76C793.551 48.64 794.233 43.6907 794.916 38.912C789.113 39.2533 782.969 39.5947 776.484 39.936C769.999 40.2773 764.025 40.6187 758.564 40.96L761.124 14.336C776.484 14.336 788.601 13.6533 797.476 12.288C806.692 10.5813 813.689 8.704 818.468 6.65601C823.588 4.60801 827.513 2.38934 830.244 0H849.188Z" fill="black"/>
<path d="M1026.87 124.928C1040.18 124.928 1052.3 126.976 1063.22 131.072C1074.49 134.827 1083.53 141.141 1090.36 150.016C1097.19 158.891 1100.6 170.837 1100.6 185.856C1100.6 199.851 1095.99 211.968 1086.78 222.208C1077.56 232.107 1065.61 240.299 1050.94 246.784C1036.26 253.269 1020.39 258.56 1003.32 262.656C986.253 266.411 969.869 269.312 954.168 271.36C954.168 291.84 956.387 308.565 960.824 321.536C965.261 334.507 971.405 344.064 979.256 350.208C987.448 356.352 997.176 359.424 1008.44 359.424C1016.97 359.424 1025.85 357.547 1035.06 353.792C1044.62 350.037 1053.84 344.064 1062.71 335.872C1071.59 327.339 1079.61 315.904 1086.78 301.568L1107.77 312.832C1098.21 331.947 1087.8 347.477 1076.54 359.424C1065.27 371.029 1053.15 379.392 1040.18 384.512C1027.21 389.632 1013.22 392.192 998.2 392.192C966.115 392.192 941.88 382.464 925.496 363.008C909.112 343.211 900.92 315.904 900.92 281.088C900.92 262.656 903.48 244.224 908.6 225.792C913.72 207.019 921.4 190.123 931.64 175.104C941.88 159.744 955.021 147.627 971.064 138.752C987.107 129.536 1005.71 124.928 1026.87 124.928ZM1020.22 147.968C1005.88 147.968 994.104 152.917 984.888 162.816C976.013 172.373 969.187 184.832 964.408 200.192C959.629 215.552 956.557 231.424 955.192 247.808C973.283 245.077 989.667 240.811 1004.34 235.008C1019.02 228.864 1030.63 221.355 1039.16 212.48C1048.03 203.264 1052.3 193.024 1051.96 181.76C1051.96 171.52 1049.06 163.328 1043.26 157.184C1037.79 151.04 1030.11 147.968 1020.22 147.968Z" fill="black"/>
<path d="M1198.19 124.928C1213.55 124.928 1224.82 130.048 1231.98 140.288C1239.15 150.187 1242.74 163.499 1242.74 180.224C1242.74 189.781 1241.71 201.387 1239.66 215.04C1237.96 228.352 1235.74 242.517 1233.01 257.536C1230.62 272.555 1228.57 287.232 1226.86 301.568C1225.16 315.904 1224.3 328.875 1224.3 340.48C1224.3 346.965 1225.33 351.744 1227.38 354.816C1229.77 357.888 1233.01 359.424 1237.1 359.424C1242.57 359.424 1248.2 356.011 1254 349.184C1260.14 342.016 1265.61 329.899 1270.38 312.832L1289.33 317.44C1287.96 324.608 1285.57 332.629 1282.16 341.504C1278.75 350.037 1274.14 358.229 1268.34 366.08C1262.87 373.589 1256.22 379.904 1248.37 385.024C1240.52 389.803 1231.47 392.192 1221.23 392.192C1204.51 392.192 1192.39 387.755 1184.88 378.88C1177.71 370.005 1174.13 357.376 1174.13 340.992C1174.13 327.68 1174.98 314.027 1176.69 300.032C1178.74 286.037 1180.95 272.043 1183.34 258.048C1185.73 244.053 1187.95 230.4 1190 217.088C1192.05 203.435 1193.07 190.293 1193.07 177.664C1193.07 172.885 1192.05 168.448 1190 164.352C1188.29 159.915 1185.22 157.696 1180.78 157.696C1175.66 157.696 1170.03 161.28 1163.89 168.448C1157.74 175.275 1152.28 187.221 1147.5 204.288L1128.56 199.68C1129.93 193.195 1132.31 185.856 1135.73 177.664C1139.14 169.131 1143.58 160.939 1149.04 153.088C1154.84 144.896 1161.67 138.24 1169.52 133.12C1177.71 127.659 1187.27 124.928 1198.19 124.928ZM1223.28 8.19202C1232.5 8.19202 1239.83 11.4347 1245.3 17.92C1251.1 24.064 1254 32.0853 1254 41.984C1253.66 51.5413 1250.42 59.392 1244.27 65.536C1238.13 71.68 1230.79 74.752 1222.26 74.752C1213.38 74.752 1205.87 71.68 1199.73 65.536C1193.93 59.392 1191.19 51.5413 1191.54 41.984C1191.54 32.0853 1194.78 24.064 1201.26 17.92C1207.75 11.4347 1215.09 8.19202 1223.28 8.19202Z" fill="black"/>
<path d="M1440.91 124.928C1459.34 124.928 1476.07 129.365 1491.08 138.24C1506.1 146.773 1517.88 159.573 1526.41 176.64C1535.29 193.365 1539.72 213.675 1539.72 237.568C1539.72 264.875 1534.6 290.304 1524.36 313.856C1514.47 337.408 1500.13 356.352 1481.36 370.688C1462.58 385.024 1439.88 392.192 1413.26 392.192C1390.73 392.192 1371.96 387.072 1356.94 376.832C1342.26 366.592 1331.34 352.768 1324.17 335.36C1317 317.611 1313.42 298.155 1313.42 276.992C1313.42 249.344 1318.54 224.085 1328.78 201.216C1339.02 178.005 1353.7 159.573 1372.81 145.92C1391.93 131.925 1414.63 124.928 1440.91 124.928ZM1433.23 148.992C1419.57 148.651 1407.8 153.6 1397.9 163.84C1388.34 173.739 1380.83 187.221 1375.37 204.288C1369.91 221.355 1367.01 240.299 1366.67 261.12C1366.67 272.043 1367.35 283.819 1368.72 296.448C1370.42 308.736 1373.15 320.341 1376.91 331.264C1381 341.845 1386.47 350.549 1393.29 357.376C1400.12 364.203 1408.82 367.787 1419.4 368.128C1431.35 368.128 1441.42 364.544 1449.61 357.376C1458.15 349.867 1464.97 340.309 1470.09 328.704C1475.55 316.757 1479.48 304.128 1481.87 290.816C1484.6 277.504 1486.13 265.045 1486.48 253.44C1486.82 242.176 1486.31 230.571 1484.94 218.624C1483.57 206.677 1480.84 195.413 1476.75 184.832C1472.99 174.251 1467.53 165.717 1460.36 159.232C1453.54 152.405 1444.49 148.992 1433.23 148.992Z" fill="black"/>
</svg>
