<svg width="512" height="512" viewBox="0 0 512 512" fill="none" xmlns="http://www.w3.org/2000/svg">
<path fill-rule="evenodd" clip-rule="evenodd" d="M10.3618 78.2861C0 91.7628 0 112.216 0 153.121V310.8C0 337.841 0 351.362 5.76832 362.306C8.15395 366.832 11.2201 370.965 14.8597 374.56C23.66 383.255 36.5994 387.176 62.4783 395.018L224.83 444.218C230.208 445.848 232.897 446.663 235.649 447.17C236.807 447.384 237.972 447.556 239.141 447.688C241.922 448 244.732 448 250.352 448H261.648C267.268 448 270.078 448 272.859 447.688C274.028 447.556 275.193 447.384 276.351 447.17C279.103 446.663 281.792 445.848 287.17 444.218L449.522 395.018L449.522 395.018C475.401 387.176 488.34 383.255 497.14 374.56C500.78 370.965 503.846 366.832 506.232 362.306C512 351.362 512 337.841 512 310.8V153.121C512 112.216 512 91.7628 501.638 78.2861C497.418 72.7967 492.103 68.2438 486.031 64.9159C471.123 56.7456 450.913 59.8852 410.492 66.1643L269.508 88.0652C263.688 88.9693 260.778 89.4214 257.849 89.5298C256.617 89.5754 255.383 89.5754 254.151 89.5298C251.222 89.4214 248.312 88.9693 242.492 88.0652L101.508 66.1643C61.0874 59.8852 40.8769 56.7456 25.9694 64.9159C19.8972 68.2438 14.5824 72.7967 10.3618 78.2861ZM283.021 124.983C284 127.996 284 131.719 284 139.164V151C284 164.094 284 170.641 286.947 175.45C288.596 178.141 290.859 180.404 293.55 182.053C298.359 185 304.906 185 318 185H332C339.445 185 343.168 185 346.18 185.979C352.269 187.957 357.043 192.731 359.021 198.82C360 201.832 360 205.555 360 213C360 220.445 360 224.168 359.021 227.18C357.043 233.269 352.269 238.043 346.18 240.021C343.168 241 339.445 241 332 241H318C304.906 241 298.359 241 293.55 243.947C290.859 245.596 288.596 247.859 286.947 250.55C284 255.359 284 261.906 284 275V372.164C284 379.609 284 383.331 283.021 386.344C281.043 392.433 276.269 397.206 270.18 399.185C267.168 400.164 263.445 400.164 256 400.164C248.555 400.164 244.832 400.164 241.82 399.185C235.731 397.206 230.957 392.433 228.979 386.344C228 383.331 228 379.609 228 372.164V275C228 261.906 228 255.359 225.053 250.55C223.404 247.859 221.141 245.596 218.45 243.947C213.641 241 207.094 241 194 241H179C171.555 241 167.832 241 164.82 240.021C158.731 238.043 153.957 233.269 151.979 227.18C151 224.168 151 220.445 151 213C151 205.555 151 201.832 151.979 198.82C153.957 192.731 158.731 187.957 164.82 185.979C167.832 185 171.555 185 179 185H194C207.094 185 213.641 185 218.45 182.053C221.141 180.404 223.404 178.141 225.053 175.45C228 170.641 228 164.094 228 151V139.164C228 131.719 228 127.996 228.979 124.983C230.957 118.895 235.731 114.121 241.82 112.143C244.832 111.164 248.555 111.164 256 111.164C263.445 111.164 267.168 111.164 270.18 112.143C276.269 114.121 281.043 118.895 283.021 124.983Z" fill="black"/>
</svg>
