<svg width="1251" height="512" viewBox="0 0 1251 512" fill="none" xmlns="http://www.w3.org/2000/svg">
<path fill-rule="evenodd" clip-rule="evenodd" d="M10.3618 78.2861C0 91.7628 0 112.216 0 153.121V310.8C0 337.841 0 351.362 5.76832 362.306C8.15395 366.832 11.2201 370.965 14.8597 374.56C23.66 383.255 36.5994 387.176 62.4783 395.018L224.83 444.218C230.208 445.848 232.897 446.663 235.649 447.17C236.807 447.384 237.972 447.556 239.141 447.688C241.922 448 244.732 448 250.352 448H261.648C267.268 448 270.078 448 272.859 447.688C274.028 447.556 275.193 447.384 276.351 447.17C279.103 446.663 281.792 445.848 287.17 444.218L449.522 395.018L449.522 395.018C475.401 387.176 488.34 383.255 497.14 374.56C500.78 370.965 503.846 366.832 506.232 362.306C512 351.362 512 337.841 512 310.8V153.121C512 112.216 512 91.7628 501.638 78.2861C497.418 72.7967 492.103 68.2438 486.031 64.9159C471.123 56.7456 450.913 59.8852 410.492 66.1643L269.508 88.0652C263.688 88.9693 260.778 89.4214 257.849 89.5298C256.617 89.5754 255.383 89.5754 254.151 89.5298C251.222 89.4214 248.312 88.9693 242.492 88.0652L101.508 66.1643C61.0874 59.8852 40.8769 56.7456 25.9694 64.9159C19.8972 68.2438 14.5824 72.7967 10.3618 78.2861ZM283.021 124.983C284 127.996 284 131.719 284 139.164V151C284 164.094 284 170.641 286.947 175.45C288.596 178.141 290.859 180.404 293.55 182.053C298.359 185 304.906 185 318 185H332C339.445 185 343.168 185 346.18 185.979C352.269 187.957 357.043 192.731 359.021 198.82C360 201.832 360 205.555 360 213C360 220.445 360 224.168 359.021 227.18C357.043 233.269 352.269 238.043 346.18 240.021C343.168 241 339.445 241 332 241H318C304.906 241 298.359 241 293.55 243.947C290.859 245.596 288.596 247.859 286.947 250.55C284 255.359 284 261.906 284 275V372.164C284 379.609 284 383.331 283.021 386.344C281.043 392.433 276.269 397.206 270.18 399.185C267.168 400.164 263.445 400.164 256 400.164C248.555 400.164 244.832 400.164 241.82 399.185C235.731 397.206 230.957 392.433 228.979 386.344C228 383.331 228 379.609 228 372.164V275C228 261.906 228 255.359 225.053 250.55C223.404 247.859 221.141 245.596 218.45 243.947C213.641 241 207.094 241 194 241H179C171.555 241 167.832 241 164.82 240.021C158.731 238.043 153.957 233.269 151.979 227.18C151 224.168 151 220.445 151 213C151 205.555 151 201.832 151.979 198.82C153.957 192.731 158.731 187.957 164.82 185.979C167.832 185 171.555 185 179 185H194C207.094 185 213.641 185 218.45 182.053C221.141 180.404 223.404 178.141 225.053 175.45C228 170.641 228 164.094 228 151V139.164C228 131.719 228 127.996 228.979 124.983C230.957 118.895 235.731 114.121 241.82 112.143C244.832 111.164 248.555 111.164 256 111.164C263.445 111.164 267.168 111.164 270.18 112.143C276.269 114.121 281.043 118.895 283.021 124.983Z" fill="black"/>
<path d="M584 317H598.2V201.4H584V189.4H654.6C661.933 189.4 668.333 190.267 673.8 192C679.4 193.6 684 195.867 687.6 198.8C691.2 201.6 693.867 205 695.6 209C697.467 213 698.4 217.4 698.4 222.2C698.4 227.133 697.6 231.467 696 235.2C694.4 238.933 692.2 242.133 689.4 244.8C686.733 247.467 683.667 249.667 680.2 251.4C676.733 253 673.133 254.2 669.4 255V256C673.267 256.4 677.267 257.4 681.4 259C685.533 260.467 689.267 262.6 692.6 265.4C695.933 268.2 698.667 271.667 700.8 275.8C702.933 279.933 704 284.733 704 290.2C704 302.467 700.133 312 692.4 318.8C684.8 325.6 673.733 329 659.2 329H584V317ZM626.2 316H652C659.467 316 665.2 314.133 669.2 310.4C673.2 306.533 675.2 301.2 675.2 294.4V285.4C675.2 278.6 673.2 273.333 669.2 269.6C665.2 265.733 659.467 263.8 652 263.8H626.2V316ZM626.2 250.8H648.6C655.533 250.8 660.733 249.133 664.2 245.8C667.8 242.333 669.6 237.4 669.6 231V222.2C669.6 215.8 667.8 210.933 664.2 207.6C660.733 204.133 655.533 202.4 648.6 202.4H626.2V250.8Z" fill="black"/>
<path d="M747.867 208C742.934 208 739.067 206.6 736.267 203.8C733.601 201 732.267 197.333 732.267 192.8V191.8C732.267 187.267 733.601 183.6 736.267 180.8C739.067 178 742.934 176.6 747.867 176.6C752.801 176.6 756.601 178 759.267 180.8C762.067 183.6 763.467 187.267 763.467 191.8V192.8C763.467 197.333 762.067 201 759.267 203.8C756.601 206.6 752.801 208 747.867 208ZM722.067 317H734.867V242.8L722.067 240.2V230.2L761.067 222.2V317H773.867V329H722.067V317Z" fill="black"/>
<path d="M852.288 331.4C844.288 331.4 837.754 329.6 832.688 326C827.621 322.4 824.088 318.2 822.088 313.4H821.088L808.488 329H796.688V197.6L783.887 195V185L822.887 177V240H823.887C825.887 235.333 829.221 231.2 833.888 227.6C838.554 224 844.688 222.2 852.288 222.2C858.688 222.2 864.421 223.467 869.488 226C874.688 228.533 879.087 232.2 882.688 237C886.421 241.667 889.221 247.4 891.087 254.2C893.087 260.867 894.087 268.4 894.087 276.8C894.087 285.2 893.087 292.8 891.087 299.6C889.221 306.267 886.421 312 882.688 316.8C879.087 321.467 874.688 325.067 869.488 327.6C864.421 330.133 858.688 331.4 852.288 331.4ZM843.688 315C850.354 315 855.754 312.733 859.888 308.2C864.021 303.667 866.087 297.267 866.087 289V264.6C866.087 256.333 864.021 249.933 859.888 245.4C855.754 240.867 850.354 238.6 843.688 238.6C838.087 238.6 833.221 240.333 829.087 243.8C824.954 247.133 822.887 251.733 822.887 257.6V296C822.887 301.867 824.954 306.533 829.087 310C833.221 313.333 838.087 315 843.688 315Z" fill="black"/>
<path d="M908.93 317H921.73V197.6L908.93 195V185L947.93 177V317H960.73V329H908.93V317Z" fill="black"/>
<path d="M1024.6 331.4C1016.6 331.4 1009.47 330.067 1003.2 327.4C997.068 324.733 991.868 321 987.602 316.2C983.335 311.267 980.068 305.467 977.802 298.8C975.668 292 974.602 284.6 974.602 276.6C974.602 268.333 975.735 260.867 978.002 254.2C980.402 247.4 983.735 241.667 988.002 237C992.268 232.2 997.335 228.533 1003.2 226C1009.2 223.467 1015.8 222.2 1023 222.2C1030.2 222.2 1036.67 223.4 1042.4 225.8C1048.27 228.067 1053.2 231.333 1057.2 235.6C1061.33 239.867 1064.47 245 1066.6 251C1068.87 256.867 1070 263.467 1070 270.8V277H1002.8V284.2C1002.8 293.8 1005.27 301.2 1010.2 306.4C1015.27 311.467 1021.87 314 1030 314C1037.47 314 1043.47 312.333 1048 309C1052.53 305.667 1055.87 301.533 1058 296.6L1067.8 302.6C1066.6 305.933 1064.8 309.333 1062.4 312.8C1060.13 316.133 1057.2 319.2 1053.6 322C1050.13 324.8 1046 327.067 1041.2 328.8C1036.4 330.533 1030.87 331.4 1024.6 331.4ZM1002.8 265.4H1042.8V262.8C1042.8 253.2 1041.07 246.133 1037.6 241.6C1034.27 237.067 1029.4 234.8 1023 234.8C1016.6 234.8 1011.6 237.067 1008 241.6C1004.53 246 1002.8 253 1002.8 262.6V265.4Z" fill="black"/>
<path d="M1111.73 208C1106.8 208 1102.93 206.6 1100.13 203.8C1097.47 201 1096.13 197.333 1096.13 192.8V191.8C1096.13 187.267 1097.47 183.6 1100.13 180.8C1102.93 178 1106.8 176.6 1111.73 176.6C1116.67 176.6 1120.47 178 1123.13 180.8C1125.93 183.6 1127.33 187.267 1127.33 191.8V192.8C1127.33 197.333 1125.93 201 1123.13 203.8C1120.47 206.6 1116.67 208 1111.73 208ZM1085.93 317H1098.73V242.8L1085.93 240.2V230.2L1124.93 222.2V317H1137.73V329H1085.93V317Z" fill="black"/>
<path d="M1201.15 318.2C1208.35 318.2 1213.69 316 1217.15 311.6C1220.75 307.2 1222.55 301 1222.55 293V260.6C1222.55 252.6 1220.75 246.4 1217.15 242C1213.69 237.6 1208.35 235.4 1201.15 235.4C1193.95 235.4 1188.55 237.6 1184.95 242C1181.49 246.4 1179.75 252.6 1179.75 260.6V293C1179.75 301 1181.49 307.2 1184.95 311.6C1188.55 316 1193.95 318.2 1201.15 318.2ZM1201.15 331.4C1193.69 331.4 1186.89 330.2 1180.75 327.8C1174.75 325.267 1169.55 321.667 1165.15 317C1160.89 312.2 1157.55 306.467 1155.15 299.8C1152.75 293 1151.55 285.333 1151.55 276.8C1151.55 268.267 1152.75 260.667 1155.15 254C1157.55 247.2 1160.89 241.467 1165.15 236.8C1169.55 232 1174.75 228.4 1180.75 226C1186.89 223.467 1193.69 222.2 1201.15 222.2C1208.62 222.2 1215.35 223.467 1221.35 226C1227.49 228.4 1232.69 232 1236.95 236.8C1241.35 241.467 1244.75 247.2 1247.15 254C1249.55 260.667 1250.75 268.267 1250.75 276.8C1250.75 285.333 1249.55 293 1247.15 299.8C1244.75 306.467 1241.35 312.2 1236.95 317C1232.69 321.667 1227.49 325.267 1221.35 327.8C1215.35 330.2 1208.62 331.4 1201.15 331.4Z" fill="black"/>
</svg>
